<?xml version="1.0" encoding="UTF-8"?>
<svg xmlns="http://www.w3.org/2000/svg" height="560" width="420" xmlns:xlink="http://www.w3.org/1999/xlink" version="1.1" viewBox="0 0 2100 2800">
<defs>
	<filter id="e" y="-.1" width="1.2" height="1.2" x="-.1">
		<feGaussianBlur stdDeviation="3.53"/>
	</filter>
	<radialGradient id="a" gradientUnits="userSpaceOnUse" cy="67" cx="62.8" r="44">
		<stop stop-color="#acb" offset="0"/>
		<stop stop-color="#acb" offset=".9"/>
		<stop stop-color="#cee1d8" offset="1"/>
	</radialGradient>
</defs>
<path id="b" d="m1370 851l123-97-45.6 148"/>
<ellipse rx="654" transform="matrix(0 1-1 0 0 0)" stroke="#000" ry="263" cy="-1580" cx="1380" stroke-width="16" fill="none"/>
<g id="d" transform="matrix(8 0 0 8 1078-65)">
	<circle opacity=".5" filter="url(#e)" cy="67" cx="63" r="43"/>
	<g stroke="#000">
		<circle cy="63" cx="63" r="43" fill="url(#a)"/>
		<path d="m28 63h71"/>
	</g>
</g>
<path d="m1260 346h-655v-81m635 2140h-642v70m514-946h-516v154m724-469h-719v-130" stroke="#144" stroke-width="10" fill="none"/>
<use xlink:href="#b" transform="matrix(-1 0 0-1 3160 2760)"/>
<use xlink:href="#d" transform="translate(0 1888)"/>
<g font-family="DejaVu Sans" font-size="90" text-anchor="middle">
	<g font-weight="bold">
		<text y="237" x="1572">1</text>
		<text y="2132" x="1573">2</text>
		<text y="2445" x="1390">E:</text>
		<text y="560" x="1390">E:</text>
	</g>
	<use stroke-linejoin="round" stroke="#fff" xlink:href="#c" stroke-width="30"/>
	<g id="c" font-size="100">
		<switch allowReorder="yes">
			<g systemLanguage="de">
				<text y="1491" x="1318">öffnen</text>
				<text y="1309" x="1843">schließen</text>
			</g>
			<g systemLanguage="en">
				<text y="1491" x="1318">open</text>
				<text y="1309" x="1843">close</text>
			</g>
			<g systemLanguage="fr">
				<text y="1491" x="1318">ouvrir</text>
				<text y="1309" x="1843">fermer</text>
			</g>
		</switch>
	</g>
	<switch allowReorder="yes">
		<g systemLanguage="de">
			<g font-weight="bold">
				<text y="347" x="1572">auf</text>
				<text y="2242" x="1573">zu</text>
			</g>
			<g font-size="100" transform="translate(607)" fill="#144">
				<text y="2582">Eingangsaktion</text>
				<text y="231">Zustand</text>
				<text y="1030">Zustandsübergang</text>
				<text y="22.3"><tspan x="0" y="1767">Bedingung für den</tspan><tspan x="0" y="1892">Zustandsübergang</tspan>
				</text>
			</g>
			<g font-style="oblique" transform="translate(1580)">
				<text y="560">Tür</text>
				<text y="675">öffnen</text>
				<text y="2445">Tür</text>
				<text y="2559">schließen</text>
			</g>
		</g>
		<g systemLanguage="fr">
			<g font-weight="bold">
				<text y="347" x="1572">ouvert</text>
				<text y="2242" x="1573">fermé</text>
			</g>
			<g font-size="100" transform="translate(607)" fill="#144">
				<text y="2582">action d'entrée</text>
				<text y="231">état</text>
				<text y="1030">transition</text>
				<text y="1767">condition de transition</text>
			</g>
			<g font-style="oblique" transform="translate(1480)" text-anchor="start">
				<text y="560">ouvrir</text>
				<text y="675">porte</text>
				<text y="2445">fermer</text>
				<text y="2559">porte</text>
			</g>
		</g>
		<g systemLanguage="en">
			<g font-weight="bold">
				<text y="347" x="1572">opened</text>
				<text y="2242" x="1573">closed</text>
			</g>
			<g font-size="100" transform="translate(607)" fill="#144">
				<text y="231">state</text>
				<text y="2582">entry action</text>
				<text y="1030">transition</text>
				<text y="1767">transition condition</text>
			</g>
			<g font-style="oblique" transform="translate(1580)">
				<text y="560">open</text>
				<text y="675">door</text>
				<text y="2445">close</text>
				<text y="2559">door</text>
			</g>
		</g>
	</switch>
</g>
</svg>
